<svg id="_0500_coach" xmlns="http://www.w3.org/2000/svg" viewBox="0 0 500 500" data-imageid="coach-82" imageName="Coach" class="illustrations_image" style="width: 166px;"><defs><style>.cls-1_coach-82{fill:#f4a28c;}.cls-2_coach-82{fill:#a5a5a5;}.cls-3_coach-82{opacity:.03;}.cls-3_coach-82,.cls-4_coach-82{fill:#000001;}.cls-5_coach-82{fill:#e6e6e6;}.cls-6_coach-82{fill:#ce8172;opacity:.31;}.cls-7_coach-82{opacity:.58;}.cls-7_coach-82,.cls-8_coach-82,.cls-9_coach-82{fill:#68e1fd;}.cls-10_coach-82{fill:#24285b;}.cls-4_coach-82{opacity:.08;}.cls-8_coach-82{opacity:.73;}.cls-11_coach-82{fill:#ffd200;}</style></defs><ellipse id="sd_coach-82" class="cls-3_coach-82" cx="251.34" cy="445.46" rx="235.41" ry="29.13"/><g id="plan_coach-82"><polygon class="cls-2_coach-82" points="311.3 442.77 302.96 436.58 339.39 387.57 339.39 303.17 349.77 303.17 349.77 391 311.3 442.77"/><rect class="cls-2_coach-82" x="356.54" y="380.14" width="10.38" height="65.81" transform="translate(-173.33 289.91) rotate(-35.83)"/><rect class="cls-5_coach-82" x="227.94" y="52.39" width="233.27" height="253.91"/><rect class="cls-2_coach-82" x="227.94" y="268.97" width="233.27" height="37.33"/><path class="cls-4_coach-82" d="m318.18,107.5s16.81-6.04,14.85,17.55c-1.97,23.59-4.72,84.85-103.96,109.02v-43.51l41.06-12.16,33.54-21.73,6.54-35.73,7.97-13.44Z"/><rect class="cls-4_coach-82" x="319.37" y="69.25" width="50.42" height="21.9"/><circle class="cls-4_coach-82" cx="402.49" cy="172.79" r="9.71"/><circle class="cls-4_coach-82" cx="328.11" cy="206.12" r="9.71"/><circle class="cls-4_coach-82" cx="389.17" cy="227.74" r="9.71"/><path class="cls-4_coach-82" d="m387.52,141.81c1.96-1.89,3.94-3.75,5.99-5.53.97-.85.86-2.5,0-3.36-.96-.96-2.39-.85-3.36,0-2.05,1.79-4.04,3.65-6,5.54-1.96-1.89-3.95-3.75-6-5.54-.97-.85-2.4-.96-3.36,0-.86.86-.97,2.52,0,3.36,2.05,1.79,4.04,3.65,5.99,5.53-2.05,2.11-4.07,4.25-6.01,6.47-.85.97-.95,2.41,0,3.36.86.86,2.51.97,3.36,0,1.94-2.22,3.96-4.37,6.02-6.48,2.06,2.11,4.07,4.26,6.02,6.48.85.97,2.5.86,3.36,0,.95-.95.85-2.4,0-3.36-1.94-2.22-3.95-4.36-6.01-6.47Z"/><path class="cls-4_coach-82" d="m349.5,106.33c1.96-1.89,3.94-3.75,5.99-5.53.97-.85.86-2.5,0-3.36-.96-.96-2.39-.85-3.36,0-2.05,1.79-4.04,3.65-6,5.54-1.96-1.89-3.95-3.75-6-5.54-.97-.85-2.4-.96-3.36,0-.86.86-.97,2.52,0,3.36,2.05,1.79,4.04,3.65,5.99,5.53-2.05,2.11-4.07,4.25-6.01,6.47-.85.97-.95,2.41,0,3.36.86.86,2.51.97,3.36,0,1.94-2.22,3.96-4.37,6.02-6.48,2.06,2.11,4.07,4.26,6.02,6.48.85.97,2.5.86,3.36,0,.95-.95.85-2.4,0-3.36-1.94-2.22-3.95-4.36-6.01-6.47Z"/><path class="cls-4_coach-82" d="m344.34,172.32c1.96-1.89,3.94-3.75,5.99-5.53.97-.85.86-2.5,0-3.36-.96-.96-2.39-.85-3.36,0-2.05,1.79-4.04,3.65-6,5.54-1.96-1.89-3.95-3.75-6-5.54-.97-.85-2.4-.96-3.36,0-.86.86-.97,2.52,0,3.36,2.05,1.79,4.04,3.65,5.99,5.53-2.05,2.11-4.07,4.25-6.01,6.47-.85.97-.95,2.41,0,3.36.86.86,2.51.97,3.36,0,1.94-2.22,3.96-4.37,6.02-6.48,2.06,2.11,4.07,4.26,6.02,6.48.85.97,2.5.86,3.36,0,.95-.95.85-2.4,0-3.36-1.94-2.22-3.95-4.36-6.01-6.47Z"/><path class="cls-4_coach-82" d="m442.76,180.24c-1.95-2.3-3.89-4.6-5.84-6.89-.16-.28-.35-.51-.59-.7-.03-.04-.07-.08-.1-.12-.37-.44-1.12-.7-1.68-.7s-1.28.26-1.68.7c-.43.47-.62,1-.65,1.54-1.33,1.69-2.76,3.29-4.27,4.82-.41.19-.78.46-1.03.89l-.4.69c-.6,1.03-.31,2.35.61,3.07.94.73,2.26.64,3.12-.19.86-.83,1.65-1.72,2.46-2.6,1.03,20.03-5.03,40.17-17.38,56.09-1.85,2.39,1.49,5.78,3.36,3.36,13-16.75,19.76-37.73,18.8-58.85.63.75,1.27,1.5,1.9,2.25.37.44,1.12.7,1.68.7s1.28-.26,1.68-.7c.93-1.01.86-2.35,0-3.36Z"/><path class="cls-4_coach-82" d="m309.14,246.88c-4.21-.68-6.84-4.17-9.13-7.47-2.75-3.94-5.21-8.07-7.39-12.34-3.73-7.33-6.43-15.11-8.3-23.11,1.76,1.08,3.54,2.11,5.39,3.04,1.11.56,2.63.33,3.25-.85.57-1.08.33-2.66-.85-3.25-3.17-1.59-6.21-3.42-9.1-5.46-.97-.69-2.52-.24-3.15.74-.28.19-.53.43-.7.75-1.75,3.32-3.5,6.65-5.25,9.97-.58,1.1-.32,2.63.85,3.25,1.1.58,2.63.32,3.25-.85.72-1.36,1.44-2.73,2.15-4.09,2.1,8.25,5.15,16.25,9.13,23.78,2.39,4.53,5.09,8.95,8.19,13.03,2.64,3.48,5.9,6.74,10.39,7.47,2.99.48,4.28-4.1,1.26-4.58Z"/><path class="cls-4_coach-82" d="m294.81,116.96c-.73-3.97-2.4-7.79-4.81-11.03-.32-1.17-1.71-2.04-2.99-1.82-4.14.69-8.09,1.93-11.94,3.59-1.19.51-1.43,2.23-.85,3.25.7,1.23,2.08,1.36,3.25.85,1.62-.7,3.29-1.28,4.99-1.78-2.26,3.63-4.36,7.35-6.24,11.19-2.7,5.5-5.59,11.31-4.5,17.59.52,3.01,5.1,1.73,4.58-1.26-.91-5.29,2.51-10.99,4.82-15.51,1.95-3.83,4.15-7.51,6.47-11.12.39.69.78,1.39,1.11,2.12.04.08.07.16.11.24,0,.02,0,0,.01.03.09.23.18.45.27.68.17.46.33.92.47,1.39.29.94.51,1.89.69,2.85.22,1.23,1.78,2.03,2.92,1.66,1.31-.43,1.9-1.61,1.66-2.92Z"/><path class="cls-4_coach-82" d="m400.1,110.9c2.35.09,4.7.17,7.05.26,1.24.05,2.43-1.13,2.38-2.38-.06-1.33-1.04-2.33-2.38-2.38-4.41-.16-8.83-.32-13.24-.48-.4-.12-.83-.16-1.26-.05-.13,0-.26,0-.39-.01-1.24-.05-2.43,1.13-2.38,2.38.02.41.15.78.33,1.11-1.19,3.32-1.55,6.73-1.06,10.34.41,3.02,4.99,1.73,4.58-1.26-.29-2.18-.07-4.36.55-6.45,11.5,9.51,18.07,24.35,17.5,39.27-.12,3.06,4.64,3.05,4.75,0,.57-15.16-5.66-29.92-16.45-40.35Z"/></g><g id="plant_coach-82"><path class="cls-7_coach-82 targetColor" d="m432.04,414.85s-20.24-5.53-24.65-24.37c0,0,31.36-6.34,32.26,26.03l-7.61-1.67Z" style="fill: rgb(93, 169, 233);"/><path class="cls-8_coach-82 targetColor" d="m434.52,412.85s-14.14-22.36-1.7-43.26c0,0,23.85,15.15,13.25,43.31l-11.56-.05Z" style="fill: rgb(93, 169, 233);"/><path class="cls-9_coach-82 targetColor" d="m438.17,412.86s7.47-23.61,30.06-28.08c0,0,4.23,15.33-14.63,28.15l-15.43-.06Z" style="fill: rgb(93, 169, 233);"/><polygon class="cls-10_coach-82" points="423.49 412.33 427.59 440.4 453.43 440.51 457.24 412.47 423.49 412.33"/></g><g id="coach_coach-82"><path class="cls-1_coach-82" d="m174.44,104.73s26.61,11.62,46.99,41.74c20.38,30.12,73.53,20.11,83.28-26.14,0,0,3.99-21.7,11.07-20.81,7.09.88,0,16.39,0,16.39,0,0,9.75.44,8.86,7.97-.89,7.53-12.85,14.62-12.85,14.62,0,0-20.82,92.14-122.26,36.32l-15.09-70.09Z"/><path class="cls-9_coach-82 targetColor" d="m60.93,427.77s-2.92,8.12-10.26,8.74c-7.33.62-9.26,7.79-2.66,9.66,6.6,1.87,23.61-6.61,23.61-6.61l-.48-10.59-10.21-1.21Z" style="fill: rgb(93, 169, 233);"/><path class="cls-9_coach-82 targetColor" d="m161.72,427.77s2.92,8.12,10.26,8.74,9.26,7.79,2.66,9.66c-6.6,1.87-23.61-6.61-23.61-6.61l.48-10.59,10.21-1.21Z" style="fill: rgb(93, 169, 233);"/><path class="cls-1_coach-82" d="m127.83,54.59s4.02,10.22,4.31,17.71c.12,3.04-2.29,5.64-5.33,5.72-3.78.1-8.91-.87-11.73-6.08l-5.87-8.26s-3.49-5.31,1.18-11.33c4.67-6.02,15.3-4.1,17.43,2.24Z"/><polygon class="cls-1_coach-82" points="111.87 65.76 112.32 101.73 132.13 100.06 123.84 74.56 111.87 65.76"/><path class="cls-10_coach-82" d="m128.05,54.71c-.12-1.75-1.64-4.18-2.46-5.08-3.21-3.55-8.65-3.77-12.75-1.76-1.75.86-3.81,2.08-5.05,3.63-1.19,1.49-1.44,3.66-1.32,5.52.31,4.71,1.82,9.33,4.35,13.32,1.1,1.73,2.03,2.79,4.06,1.67,1.71-.94,2.85-2.59,3.4-4.44.82-2.76.29-5-.52-6.63,1.78-.89,3.57-1.76,5.35-2.64.89-.44,1.78-.88,2.68-1.33.46-.23,1.66-.55,1.96-.95.25-.34.34-.79.3-1.3Z"/><path class="cls-1_coach-82" d="m119.31,66.91s-1.28-4.03-4.23-2.82c-2.95,1.21-1.14,7.05,3.16,6.37l1.07-3.55Z"/><path class="cls-1_coach-82" d="m130.03,61.16l4.13,3.19c1.02.79.88,2.37-.27,2.96l-3.8,1.95-.06-8.09Z"/><path class="cls-6_coach-82" d="m124.88,77.97s-2.54.24-7.98-2.56c0,0,1.22,7.08,10.48,10.03l-2.5-7.48Z"/><path class="cls-9_coach-82 targetColor" d="m149.72,98.24c-24.94.42-58.58,4.81-94.94,20.3-19.44,8.28-27.95,31.19-18.48,50.08l51.66,103.04,95.77-5.67s17.43-57.9,13.93-123.42c-1.35-25.26-22.65-44.76-47.94-44.34Z" style="fill: rgb(93, 169, 233);"/><path class="cls-4_coach-82" d="m80.05,132.23s22.58,16.7,18.22,46.53c-4.36,29.83-8.85,53.01,18.63,46.08,27.48-6.93,42.39-70.92,42.39-70.92l32.09.79-5.55,71.36-18.62,1.28c-9.05.62-16.57,7.22-18.36,16.11l-5.01,24.88-55.89,3.31-7.91-11.75-34.87-37.84-4.36-60.22,39.22-29.62Z"/><rect class="cls-11_coach-82" x="120.79" y="133.13" width="62.2" height="85.18" transform="translate(291.51 361.34) rotate(-176.11)"/><path class="cls-1_coach-82" d="m75.54,340l-13.77,88.01,9.37.96,38.38-85.29c.52-1.24,1.08-2.46,1.63-3.68h-35.61Z"/><path class="cls-1_coach-82" d="m144.76,340c6.86,42.09,6.75,88.97,6.75,88.97l10.86.39,14.19-89.14-31.8-.22Z"/><path class="cls-10_coach-82" d="m104.32,356.09l5.2-12.4c6.31-15.04,15.01-28.83,25.66-40.88,5.99,14.96,9.61,34.28,11.79,53.29h28.6l8.16-90.09-95.77,5.67-15.33,84.42h31.7Z"/><path class="cls-4_coach-82" d="m183.17,174.17s-21.3,39.29-64.26,28.19l-.93,13.75,62.05,4.22,3.14-46.16Z"/><path class="cls-1_coach-82" d="m151.89,197.33c-10.71-4.08-22.13,9.29-22.13,9.29,0,0-29.27,24.82-56.06,25.19-19.94.27,9.84-51.21,8.48-90.34-.76-21.93-28.2-30.9-41.75-13.63-10.99,14.01-21.1,37.4-20.27,75.82,1.78,82.01,49.92,104,124.21,14.26,0,0,18.23-16.5,7.51-20.58Z"/><path class="cls-10_coach-82" d="m139.59,119.4c-.25-2.41-2.27-4.3-4.75-4.3-2.65,0-4.8,2.15-4.8,4.8s2.15,4.8,4.8,4.8v4.22h4.8v-9.51h-.05Z"/><path class="cls-10_coach-82" d="m137.44,98.37c-.53-1.42-2.83-.81-2.29.63,1.38,3.7,1.75,7.71.91,11.58-.39,1.82-.97,3.96-2.08,5.49-1.17,1.61-3.61.88-5.2.37-3.47-1.11-6.39-3.5-9.01-5.96-2.9-2.71-5.87-5.47-7.57-9.12-.65-1.39-2.7-.18-2.05,1.2,1.57,3.37,4.16,5.93,6.78,8.49,2.4,2.34,4.95,4.64,7.91,6.25,2.55,1.39,6.48,2.99,9.33,1.66,1.41-.66,2.15-2.04,2.76-3.4.74-1.66,1.29-3.4,1.6-5.19.7-4.03.36-8.17-1.08-12.01Z"/></g></svg>