<svg xmlns="http://www.w3.org/2000/svg" version="1.1" xmlns:xlink="http://www.w3.org/1999/xlink" xmlns:svgjs="http://svgjs.dev/svgjs" width="1920" height="560" preserveAspectRatio="none" viewBox="0 0 1920 560"><g mask="url(&quot;#SvgjsMask1013&quot;)" fill="none"><rect width="1920" height="560" x="0" y="0" fill="rgba(0, 63, 145, 1)"></rect><path d="M826.9 666.66C994.45 666.09 1144.15 543.23 1485.04 540.1 1825.93 536.97 1968.95 313.76 2143.18 310.5" stroke="rgba(93, 169, 233, 1)" stroke-width="2"></path><path d="M516.08 650.05C726.45 637.3 881.97 247.98 1256.66 247.3 1631.35 246.62 1807.08 419.74 1997.24 420.9" stroke="rgba(93, 169, 233, 1)" stroke-width="2"></path><path d="M500.83 596.57C717.43 594.21 916.18 357.29 1333.56 357.22 1750.94 357.15 1955.84 480.09 2166.29 480.42" stroke="rgba(93, 169, 233, 1)" stroke-width="2"></path><path d="M877.62 601.41C1049.33 597.97 1180.29 377.48 1524.52 370.18 1868.74 362.88 1998.89 133.24 2171.41 129.38" stroke="rgba(93, 169, 233, 1)" stroke-width="2"></path><path d="M818.21 644.19C982.83 608.44 933.12 178.33 1303.87 177.11 1674.62 175.89 2027.73 366.62 2275.18 367.51" stroke="rgba(93, 169, 233, 1)" stroke-width="2"></path></g><defs><mask id="SvgjsMask1013"><rect width="1920" height="560" fill="#ffffff"></rect></mask></defs></svg>