<svg id="visual" viewBox="0 0 1920 150" width="1920" height="150" xmlns="http://www.w3.org/2000/svg" xmlns:xlink="http://www.w3.org/1999/xlink" version="1.1"><path d="M0 98L45.7 97.3C91.3 96.7 182.7 95.3 274.2 97C365.7 98.7 457.3 103.3 548.8 103.2C640.3 103 731.7 98 823 94.7C914.3 91.3 1005.7 89.7 1097 91C1188.3 92.3 1279.7 96.7 1371.2 98.8C1462.7 101 1554.3 101 1645.8 100.7C1737.3 100.3 1828.7 99.7 1874.3 99.3L1920 99L1920 151L1874.3 151C1828.7 151 1737.3 151 1645.8 151C1554.3 151 1462.7 151 1371.2 151C1279.7 151 1188.3 151 1097 151C1005.7 151 914.3 151 823 151C731.7 151 640.3 151 548.8 151C457.3 151 365.7 151 274.2 151C182.7 151 91.3 151 45.7 151L0 151Z" fill="#5da9e9"></path><path d="M0 112L45.7 110.3C91.3 108.7 182.7 105.3 274.2 105.5C365.7 105.7 457.3 109.3 548.8 111.5C640.3 113.7 731.7 114.3 823 114.2C914.3 114 1005.7 113 1097 112.5C1188.3 112 1279.7 112 1371.2 110C1462.7 108 1554.3 104 1645.8 104.8C1737.3 105.7 1828.7 111.3 1874.3 114.2L1920 117L1920 151L1874.3 151C1828.7 151 1737.3 151 1645.8 151C1554.3 151 1462.7 151 1371.2 151C1279.7 151 1188.3 151 1097 151C1005.7 151 914.3 151 823 151C731.7 151 640.3 151 548.8 151C457.3 151 365.7 151 274.2 151C182.7 151 91.3 151 45.7 151L0 151Z" fill="#448ed4"></path><path d="M0 116L45.7 117.5C91.3 119 182.7 122 274.2 120.8C365.7 119.7 457.3 114.3 548.8 112.7C640.3 111 731.7 113 823 113.8C914.3 114.7 1005.7 114.3 1097 114.7C1188.3 115 1279.7 116 1371.2 116.2C1462.7 116.3 1554.3 115.7 1645.8 116.3C1737.3 117 1828.7 119 1874.3 120L1920 121L1920 151L1874.3 151C1828.7 151 1737.3 151 1645.8 151C1554.3 151 1462.7 151 1371.2 151C1279.7 151 1188.3 151 1097 151C1005.7 151 914.3 151 823 151C731.7 151 640.3 151 548.8 151C457.3 151 365.7 151 274.2 151C182.7 151 91.3 151 45.7 151L0 151Z" fill="#2d73bf"></path><path d="M0 120L45.7 120.3C91.3 120.7 182.7 121.3 274.2 122.8C365.7 124.3 457.3 126.7 548.8 128.7C640.3 130.7 731.7 132.3 823 132.3C914.3 132.3 1005.7 130.7 1097 128.7C1188.3 126.7 1279.7 124.3 1371.2 122.8C1462.7 121.3 1554.3 120.7 1645.8 122.3C1737.3 124 1828.7 128 1874.3 130L1920 132L1920 151L1874.3 151C1828.7 151 1737.3 151 1645.8 151C1554.3 151 1462.7 151 1371.2 151C1279.7 151 1188.3 151 1097 151C1005.7 151 914.3 151 823 151C731.7 151 640.3 151 548.8 151C457.3 151 365.7 151 274.2 151C182.7 151 91.3 151 45.7 151L0 151Z" fill="#1759a8"></path><path d="M0 134L45.7 134.7C91.3 135.3 182.7 136.7 274.2 136.2C365.7 135.7 457.3 133.3 548.8 132.2C640.3 131 731.7 131 823 130.8C914.3 130.7 1005.7 130.3 1097 131.3C1188.3 132.3 1279.7 134.7 1371.2 135.7C1462.7 136.7 1554.3 136.3 1645.8 137C1737.3 137.7 1828.7 139.3 1874.3 140.2L1920 141L1920 151L1874.3 151C1828.7 151 1737.3 151 1645.8 151C1554.3 151 1462.7 151 1371.2 151C1279.7 151 1188.3 151 1097 151C1005.7 151 914.3 151 823 151C731.7 151 640.3 151 548.8 151C457.3 151 365.7 151 274.2 151C182.7 151 91.3 151 45.7 151L0 151Z" fill="#003f91"></path></svg>