<svg xmlns="http://www.w3.org/2000/svg" version="1.1" xmlns:xlink="http://www.w3.org/1999/xlink" xmlns:svgjs="http://svgjs.dev/svgjs" width="1920" height="560" preserveAspectRatio="none" viewBox="0 0 1920 560"><g mask="url(&quot;#SvgjsMask1068&quot;)" fill="none"><rect width="1920" height="560" x="0" y="0" fill="rgba(0, 63, 145, 1)"></rect><path d="M0,519.379C99.892,537.054,210.79,514.757,290.442,451.937C368.05,390.729,372.828,278.857,417.049,190.46C463.373,97.857,562.649,23.343,556.552,-80.02C550.415,-184.062,449.198,-251.604,386.083,-334.543C318.112,-423.863,272.835,-536.359,171.911,-585.475C64.315,-637.838,-63.225,-639.875,-178.977,-609.54C-296.631,-578.707,-407.663,-513.545,-478.856,-414.931C-547.401,-319.984,-567.711,-197.533,-560.811,-80.632C-554.667,23.456,-504.934,118.59,-442.437,202.054C-388.682,273.843,-304.01,307.379,-231.132,359.648C-153.457,415.358,-94.126,502.724,0,519.379" fill="#003274"></path><path d="M1920 1048.5520000000001C2011.175 1049.27 2085.112 984.571 2166.714 943.894 2259.42 897.682 2384.361 885.832 2431.486 793.588 2478.565 701.434 2429.104 589.962 2397.943 491.282 2370.74 405.135 2309.487 340.06399999999996 2263.685 262.196 2205.602 163.45100000000002 2195.616 22.29600000000005 2092.601-27.825000000000045 1990.119-77.68700000000001 1863.145-32.46600000000001 1760.699 17.470000000000027 1667.071 63.10700000000003 1620.051 162.445 1547.98 237.642 1471.1309999999999 317.824 1343.142 364.94399999999996 1322.989 474.163 1302.847 583.322 1381.777 686.703 1448.789 775.1949999999999 1506.406 851.28 1593.218 892.135 1675.772 940.0260000000001 1754.422 985.652 1829.077 1047.836 1920 1048.5520000000001" fill="#004cae"></path></g><defs><mask id="SvgjsMask1068"><rect width="1920" height="560" fill="#ffffff"></rect></mask></defs></svg>