<svg id="_0578_team_presentation_7" xmlns="http://www.w3.org/2000/svg" viewBox="0 0 500 500" data-imageid="team-presentation-7-74" imageName="Team Presentation 7" class="illustrations_image" style="width: 166px;"><defs><style>.cls-1_team-presentation-7-74{fill:#fff;}.cls-2_team-presentation-7-74{fill:#f4a28c;}.cls-3_team-presentation-7-74{opacity:.46;}.cls-3_team-presentation-7-74,.cls-4_team-presentation-7-74,.cls-5_team-presentation-7-74,.cls-6_team-presentation-7-74,.cls-7_team-presentation-7-74,.cls-8_team-presentation-7-74,.cls-9_team-presentation-7-74,.cls-10_team-presentation-7-74,.cls-11_team-presentation-7-74,.cls-12_team-presentation-7-74,.cls-13_team-presentation-7-74{fill:none;}.cls-14_team-presentation-7-74{fill:#a5a5a5;}.cls-4_team-presentation-7-74{opacity:.58;}.cls-15_team-presentation-7-74{fill:#ce8172;}.cls-16_team-presentation-7-74{fill:#e6e6e6;}.cls-5_team-presentation-7-74{opacity:.03;}.cls-6_team-presentation-7-74{opacity:.09;}.cls-7_team-presentation-7-74{opacity:.73;}.cls-8_team-presentation-7-74{opacity:.64;}.cls-9_team-presentation-7-74{opacity:.08;}.cls-10_team-presentation-7-74{opacity:.31;}.cls-11_team-presentation-7-74{opacity:.3;}.cls-12_team-presentation-7-74{opacity:.77;}.cls-17_team-presentation-7-74{fill:#24285b;}.cls-18_team-presentation-7-74{fill:#000001;}.cls-19_team-presentation-7-74{fill:#ffd200;}.cls-20_team-presentation-7-74{fill:#68e1fd;}.cls-13_team-presentation-7-74{opacity:.38;}</style></defs><g id="bg_team-presentation-7-74"><g class="cls-11_team-presentation-7-74"><path class="cls-16_team-presentation-7-74" d="m160.75,31.86c-45.2,17.64-121.59,46.68-133.85,122.7-9.18,56.9-4.4,205.61,80.84,242.25,114.83,49.36,312.43,26.33,354.87-83.26,27.23-70.3,34.06-212.35-50.06-255.11-57.05-29-154.92-64.38-251.8-26.58Z"/></g></g><g id="sd_team-presentation-7-74" class="cls-5_team-presentation-7-74"><ellipse class="cls-18_team-presentation-7-74" cx="272.17" cy="461.7" rx="218.5" ry="22.86"/></g><g id="audience_team-presentation-7-74"><path class="cls-20_team-presentation-7-74 targetColor" d="m133.01,232.42c-4.74-15.28,10.39-29.19,25.29-23.38,11.75,4.58,24.89,13.99,35.73,32.72,8.45,14.59,14.5,24.26,18.84,30.65,4.67,6.89,14.69,7.25,19.82.69l35.98-45.95,13.44,9.9s-30.34,75.39-64.48,72.35c-29.42-2.62-68.64-25.54-84.62-76.99Z" style="fill: rgb(93, 169, 233);"/><g class="cls-8_team-presentation-7-74"><path class="cls-1_team-presentation-7-74" d="m133.01,232.42c-4.74-15.28,10.39-29.19,25.29-23.38,11.75,4.58,24.89,13.99,35.73,32.72,8.45,14.59,14.5,24.26,18.84,30.65,4.67,6.89,14.69,7.25,19.82.69l35.98-45.95,13.44,9.9s-30.34,75.39-64.48,72.35c-29.42-2.62-68.64-25.54-84.62-76.99Z"/></g><path class="cls-20_team-presentation-7-74 targetColor" d="m154.88,450.16s2,5.57,7.03,5.99c5.03.43,6.35,5.34,1.82,6.62-4.52,1.28-16.18-4.53-16.18-4.53l.33-7.26,7-.83Z" style="fill: rgb(93, 169, 233);"/><path class="cls-20_team-presentation-7-74 targetColor" d="m91.68,450.16s-2,5.57-7.03,5.99c-5.03.43-6.35,5.34-1.82,6.62s16.18-4.53,16.18-4.53l-.33-7.26-7-.83Z" style="fill: rgb(93, 169, 233);"/><path class="cls-2_team-presentation-7-74" d="m121.42,181.07s3.81,7.37,4.62,12.97c.33,2.27-1.28,4.42-3.56,4.71-2.83.37-6.76.04-9.29-3.66l-5.05-5.75s-3.04-3.71,0-8.6,11.18-4.27,13.27.33Z"/><polygon class="cls-2_team-presentation-7-74" points="110.69 187.21 109.48 214.36 124.49 213.95 119.34 194.36 110.69 187.21"/><path class="cls-2_team-presentation-7-74" d="m123.58,185.84l3.35,2.07c.83.51.84,1.71.03,2.24l-2.7,1.76-.67-6.08Z"/><g class="cls-10_team-presentation-7-74"><path class="cls-15_team-presentation-7-74" d="m120.56,198.85s-2.81-.25-5.15-2.33c0,0,.77,4.91,6.75,9.17l-1.6-6.84Z"/></g><path class="cls-20_team-presentation-7-74 targetColor" d="m145.17,206.41c-18.81.32-44.2,3.63-71.62,15.31-14.67,6.25-21.09,23.53-13.94,37.79l38.97,77.73,72.25-4.28s13.15-43.68,10.51-93.11c-1.02-19.05-17.09-33.77-36.17-33.45Z" style="fill: rgb(93, 169, 233);"/><path class="cls-17_team-presentation-7-74" d="m110.12,197.12l5.18-2.78.53-2.75s2.47-3.29,0-7.29c0,0,9.94-4.83,7.61-8.98-2.33-4.15-9.67-9.68-16.79-4.43-7.12,5.26-10.72,14.85,3.48,26.23Z"/><path class="cls-2_team-presentation-7-74" d="m115.98,190.99s-1.27-2.93-3.4-1.79c-2.12,1.14-.31,5.38,2.87,4.54l.53-2.75Z"/><path class="cls-1_team-presentation-7-74" d="m105.01,211.42s11.74-3.69,27.11-4.33c0,0,12.64,50.48,2.68,91.14,0,0-14.16-51.22-29.8-86.81Z"/><g class="cls-6_team-presentation-7-74"><path class="cls-18_team-presentation-7-74" d="m76.75,234.95s24.88,2.06,21.72,19.12c-3.16,17.05,7.72,64.19,14.97,68.11l23.64,12.79-38.52,2.28-12.66-25.24-23.97-47.59,14.8-29.46Z"/></g><path class="cls-20_team-presentation-7-74 targetColor" d="m105.01,211.42s-.49-6.13,3.87-6.34,7.1.62,7.1.62c0,0,12.73-9.98,16.15,1.39,0,0-18.22,2.02-27.11,4.33Z" style="fill: rgb(93, 169, 233);"/><g class="cls-12_team-presentation-7-74"><path class="cls-1_team-presentation-7-74" d="m105.01,211.42s-.49-6.13,3.87-6.34,7.1.62,7.1.62c0,0,12.73-9.98,16.15,1.39,0,0-18.22,2.02-27.11,4.33Z"/></g><path class="cls-17_team-presentation-7-74" d="m113.91,209.52s-1.44-4.8,1.59-5.39c3.03-.6,5.77-2.55,6.41,3.6.64,6.15-5.53,6.79-8,1.8Z"/><path class="cls-17_team-presentation-7-74" d="m115.91,211.95s9.55,33.85,9.66,55.61l9.23,30.68s4.32-16.64,3.82-33.4c0,0-9.88-44.53-16.81-54.94l-5.91,2.06Z"/><polygon class="cls-1_team-presentation-7-74" points="268.66 227.16 271.15 222.73 283.58 231.58 280.55 235.91 268.66 227.16"/><path class="cls-2_team-presentation-7-74" d="m272.94,224.28s4.22-16.16,8.8-17.88c4.58-1.73.73,8.26.73,8.26,0,0,13.38,7.43,0,16.41l-9.53-6.78Z"/><path class="cls-17_team-presentation-7-74" d="m87.48,451.92l11.09-114.67,72.25-4.28-12.29,118.95h-13.91s3.47-75.44-7.54-92.72c-.02-.03-.03-.05-.05-.08-2.55-3.98-8.55-3.69-10.79.48-15.1,28.17-24.19,92.31-24.19,92.31h-14.58Z"/><path class="cls-20_team-presentation-7-74 targetColor" d="m64.65,227.78S2.75,284.05,9.91,300.61c7.16,16.56,72.07,45.21,72.07,45.21l7.61-9.62s-35.59-33.72-35.81-37.97c-.22-4.25,13.43-9.71,25.29-24.7,11.86-15,22.19-50.55-14.42-45.76Z" style="fill: rgb(93, 169, 233);"/><g class="cls-8_team-presentation-7-74"><path class="cls-1_team-presentation-7-74" d="m64.65,227.78S2.75,284.05,9.91,300.61c7.16,16.56,72.07,45.21,72.07,45.21l7.61-9.62s-35.59-33.72-35.81-37.97c-.22-4.25,13.43-9.71,25.29-24.7,11.86-15,22.19-50.55-14.42-45.76Z"/></g><path class="cls-2_team-presentation-7-74" d="m89.59,336.2s8.2,5.76,8.7,8.37-.67,12.76-3.02,13.6c-2.35.84-8.73-1.18-7.39-2.52s2.19-2.18,2.19-2.18c0,0-7.45-3.69-8.09-7.64l7.61-9.62Z"/></g><g id="presenter2_team-presentation-7-74"><path class="cls-2_team-presentation-7-74" d="m315.04,210.77s-15.6-.78-19.6,9.6c-4,10.38,1.65,60.21-3.88,63.44s-43.9-13.41-43.9-13.41c0,0-4.77-3.91-7.82-5.09-2.76-1.07-.34,2.18-.23,3.17,0,0-10.76-5.29-11.01.59-.25,5.88,56.5,36.24,72.96,31.65,16.46-4.59,13.4-87.98,13.4-87.98"/><polygon class="cls-2_team-presentation-7-74" points="355.09 362.07 367.67 454.43 361.35 454.16 331.6 361.06 355.09 362.07"/><polygon class="cls-2_team-presentation-7-74" points="325.32 361.3 309.81 451.94 303.45 451.67 303.79 359.87 325.32 361.3"/><path class="cls-20_team-presentation-7-74 targetColor" d="m367.67,454.43s3.32,4.6,7.82,4.58c4.5-.03,4.88,6.35-2.31,5.38-2.75-.37-4.94-.91-6.61-1.43-1.98-.62-4.07-.5-6.1-.05-.63.14-1.34-.04-2.02-.91-1.95-2.5,3.33-7.83,3.33-7.83l5.89.25Z" style="fill: rgb(93, 169, 233);"/><path class="cls-20_team-presentation-7-74 targetColor" d="m303.92,451.69s-3.7,4.3-8.19,3.89c-4.48-.41-5.41,5.91,1.84,5.56,2.77-.13,5-.48,6.71-.86,2.03-.45,4.1-.15,6.08.48.62.19,1.34.08,2.09-.73,2.15-2.32-2.64-8.08-2.64-8.08l-5.89-.25Z" style="fill: rgb(93, 169, 233);"/><polygon class="cls-17_team-presentation-7-74" points="348.91 288.47 368.85 388.05 290.48 389.76 302.1 287.97 348.91 288.47"/><path class="cls-2_team-presentation-7-74" d="m314.88,178.64s-1.37,9.41-.14,15.8c.5,2.59,3.04,4.31,5.62,3.77,3.21-.66,7.35-2.49,8.69-7.45l3.32-8.13s1.9-5.17-3.23-9.33c-5.13-4.16-13.72-.44-14.26,5.33Z"/><polygon class="cls-2_team-presentation-7-74" points="331.6 180.31 331.65 211.48 320.08 210.67 323.24 189.15 331.6 180.31"/><path class="cls-2_team-presentation-7-74" d="m314.32,184.61l-2.86,3.5c-.71.87-.27,2.17.81,2.44l3.59.89-1.55-6.84Z"/><path class="cls-17_team-presentation-7-74" d="m311.56,178.82h0c7.27,2.08,13.71,6.37,18.43,12.27l1.44,1.8s8.93-11.65,6.06-18.94c-2.86-7.29-21.33-15.07-25.94,4.87Z"/><circle class="cls-17_team-presentation-7-74" cx="338.28" cy="166.45" r="6.07"/><path class="cls-2_team-presentation-7-74" d="m324.5,187.35s.28-3.65,3.01-3.21c2.73.44,2.35,5.72-1.41,6l-1.6-2.79Z"/><path class="cls-20_team-presentation-7-74 targetColor" d="m315.33,204.06l21.56.93-.29,6.71s36.26.87,32.71,24.31c-3.55,23.44-20.4,52.47-20.4,52.47l-42.05-.29s-11.85-18.46-17.79-40.75c-5.94-22.29,25.96-36.67,25.96-36.67l.29-6.71Z" style="fill: rgb(93, 169, 233);"/><g class="cls-6_team-presentation-7-74"><path class="cls-18_team-presentation-7-74" d="m356.29,226.32s-15.51,4.03-12.55,25.2c2.96,21.17-.42,28.29-24.46,29.67l3.76,7.67,25.87-.4s6.55-11.66,8.2-16c1.65-4.33-.82-46.15-.82-46.15Z"/></g><rect class="cls-19_team-presentation-7-74" x="283.07" y="247.68" width="39.25" height="52.94" transform="translate(-12.66 14.66) rotate(-2.72)"/><path class="cls-2_team-presentation-7-74" d="m328.09,294.28s-3.41-8.29-11.28-7.46c-7.88.83-2.95,15.56,7.48,16.37s32.16,27.15,46.12,14.68c13.96-12.46,14.85-80.69-2.57-92.36-17.42-11.67-18.08,23.98-11.36,44.95,6.72,20.97,11.5,46.22-28.39,23.82Z"/></g><g id="presenter1_team-presentation-7-74"><path class="cls-20_team-presentation-7-74 targetColor" d="m384.17,298.9s-.08.82-.27,2.24c-1.14,8.52-6.28,38.59-22.4,41.95-18.81,3.91-38.99-4.85-38.99-4.85l-3.95,9.03s30.91,31.44,53.74,21.65c22.83-9.78,31.75-35.95,31.75-35.95l-19.88-34.07Z" style="fill: rgb(93, 169, 233);"/><g class="cls-3_team-presentation-7-74"><path class="cls-1_team-presentation-7-74" d="m384.17,298.9s-.08.82-.27,2.24c-1.14,8.52-6.28,38.59-22.4,41.95-18.81,3.91-38.99-4.85-38.99-4.85l-3.95,9.03s30.91,31.44,53.74,21.65c22.83-9.78,31.75-35.95,31.75-35.95l-19.88-34.07Z"/></g><path class="cls-2_team-presentation-7-74" d="m411.37,237.54s-3.5,6.52-4.29,11.51c-.32,2.02,1.08,3.96,3.11,4.25,2.52.36,6.03.13,8.33-3.14l4.58-5.06s2.76-3.27.11-7.67c-2.65-4.4-9.91-3.96-11.84.12Z"/><polygon class="cls-2_team-presentation-7-74" points="419.68 246.04 425.49 269.56 412.3 271.83 413.34 254.26 419.68 246.04"/><path class="cls-2_team-presentation-7-74" d="m409.37,241.76l-3.02,1.8c-.75.45-.77,1.51-.05,2l2.39,1.6.68-5.41Z"/><g class="cls-10_team-presentation-7-74"><path class="cls-15_team-presentation-7-74" d="m413.28,253.33s4.84-1.04,6.45-2.56c0,0-.46,11.02-6.92,12.45l.46-9.89Z"/></g><path class="cls-2_team-presentation-7-74" d="m417.06,245.7s1.17-2.59,3.05-1.55.2,4.8-2.62,4.01l-.44-2.46Z"/><path class="cls-17_team-presentation-7-74" d="m426.38,245.22c-.34.05-.72.03-1.07.05-1.38.09-1.12,1.79-2.73,1.73-.28-.01-.55-.09-.83-.09-.6.02-1.1.46-1.48.92s-.72.99-1.24,1.3c-.48.28-1.08.35-1.61.16-.17-.06-.35-.15-.45-.31-.23-.34-.03-.79.15-1.15.29-.58.54-1.18.74-1.8.17-.53.31-1.07.45-1.62.13-.49.71-1.8.45-2.24-.23-.39-1.02-.53-1.38-.83-.45-.38-.65-.82-1.22-1.13-1.28-.7-2.82-.74-4.13-1.4-.5-.25-.97-.61-1.21-1.11s-.22-1.16.17-1.56c.49-.49,1.5-.7,1.37-1.38-.06-.28-.31-.46-.54-.63-1.19-.9-2.1-2.27-2.13-3.76-.02-1.49,1.02-3.02,2.49-3.27.89-.15,2.06.04,2.47-.77.21-.41.09-.9.08-1.36-.03-1.14.69-2.25,1.73-2.7s2.35-.21,3.16.59c.38.37.71.88,1.23.97.71.12,1.26-.58,1.86-.99.89-.62,2.12-.62,3.09-.14s1.67,1.4,2.04,2.42c.14.39.25.81.54,1.12.25.27.62.41.97.49,1.58.38,3.44-.04,4.68,1,.97.81,1.14,2.42.36,3.42-.39.49-.99.9-1.01,1.52-.01.35.17.67.36.97.78,1.25,1.69,2.71,1.16,4.09-.5,1.32-2.33,2.57-3.35,3.52s-3.1.6-3.81,1.86c-.32.57-.22,1.37-.7,1.81-.19.18-.43.26-.68.3Z"/><path class="cls-2_team-presentation-7-74" d="m421.85,243.82s3.97-1.28,4.64,1.8c.67,3.08-3.73,4.38-6,2.09,0,0,1.43-1.56,1.36-3.89Z"/><rect class="cls-16_team-presentation-7-74" x="390.19" y="401.69" width="85.68" height="61.23"/><g class="cls-9_team-presentation-7-74"><polygon class="cls-18_team-presentation-7-74" points="412.81 462.91 408.68 409.01 391.5 411.62 386.38 432.3 390.19 462.91 412.81 462.91"/></g><path class="cls-20_team-presentation-7-74 targetColor" d="m410.65,455.83s-1.84,5.1-6.45,5.49c-4.61.39-5.82,4.9-1.67,6.07,4.15,1.18,14.84-4.16,14.84-4.16l-.3-6.65-6.42-.76Z" style="fill: rgb(93, 169, 233);"/><path class="cls-20_team-presentation-7-74 targetColor" d="m411.18,271.57l13.19-2.27s43.88.07,51.56,15.09c7.68,15.03,6.07,70.96-19.31,116.88l-51.97,1.51s2.88-33.72-6.8-52.09c-9.68-18.36-39.78-57.38,13.33-79.11Z" style="fill: rgb(93, 169, 233);"/><path class="cls-17_team-presentation-7-74" d="m456.62,401.26l-25.42-3.83c-15.72-2.37-29.46,10.73-27.83,26.55l3.32,32.29h12.47l-1.08-30.23c-.26-7.21,6.13-12.87,13.25-11.72,10.82,1.74,24.22.99,25.29-13.05Z"/><path class="cls-20_team-presentation-7-74 targetColor" d="m384.78,455.83s-1.84,5.1-6.45,5.49c-4.61.39-5.82,4.9-1.67,6.07,4.15,1.18,14.84-4.16,14.84-4.16l-.3-6.65-6.42-.76Z" style="fill: rgb(93, 169, 233);"/><g class="cls-9_team-presentation-7-74"><path class="cls-18_team-presentation-7-74" d="m452.16,289.77s-14.41,12.63-11.51,26.57c.47,2.25.95,4.98,1.44,7.96,3.82,23.41-3.07,47.3-18.68,65.15l-9.08,10.38,42.29,1.42,3.62-7.08,19.74-32.81-27.82-71.6Z"/></g><path class="cls-17_team-presentation-7-74" d="m430.74,401.26l-25.42-3.83c-15.72-2.37-29.46,10.73-27.83,26.55l3.32,32.29h12.47l-1.08-30.23c-.26-7.21,6.13-12.87,13.25-11.72,10.82,1.74,24.22.99,25.29-13.05Z"/><path class="cls-20_team-presentation-7-74 targetColor" d="m476.66,285.77c9.62,13.55,18.19,43.47,10.75,85.63-2.26,12.83-13.08,22.42-26.08,23.24l-39.71,2.51v-12.95l30.18-4.36c7.02-1.01,11.47-8.04,9.41-14.83-5.31-17.5-13.55-49.21-11.42-71.81,1.29-13.73,18.88-18.67,26.87-7.43Z" style="fill: rgb(93, 169, 233);"/><g class="cls-3_team-presentation-7-74"><path class="cls-1_team-presentation-7-74" d="m476.66,285.77c9.62,13.55,18.19,43.47,10.75,85.63-2.26,12.83-13.08,22.42-26.08,23.24l-39.71,2.51v-12.95l30.18-4.36c7.02-1.01,11.47-8.04,9.41-14.83-5.31-17.5-13.55-49.21-11.42-71.81,1.29-13.73,18.88-18.67,26.87-7.43Z"/></g><path class="cls-2_team-presentation-7-74" d="m421.63,387.34s-16.12-.41-13.82,7.99c2.3,8.4,13.82,1.82,13.82,1.82v-9.81Z"/><polygon class="cls-19_team-presentation-7-74" points="368.01 400.17 361.5 363.4 407.64 363.4 411.64 394.75 432.8 395.04 432.8 400.17 368.01 400.17"/><path class="cls-1_team-presentation-7-74" d="m391,381.03c0,2.55-2.07,4.62-4.62,4.62-2.55,0-4.62-2.07-4.62-4.62s2.07-4.62,4.62-4.62,4.62,2.07,4.62,4.62Z"/><path class="cls-2_team-presentation-7-74" d="m322.51,338.24s-2.75-6.79-3.95-5.81-.52,2.43-.52,2.43c0,0-2.84-4.58-4.21-4.78s-3.91,3.72-3.72,6.75c.2,3.03,8.45,10.44,8.45,10.44l3.95-9.03Z"/></g><g id="plant_team-presentation-7-74"><g class="cls-4_team-presentation-7-74"><path class="cls-20_team-presentation-7-74 targetColor" d="m206.71,445.69s-12.63-3.45-15.38-15.21c0,0,19.58-3.96,20.13,16.25l-4.75-1.04Z" style="fill: rgb(93, 169, 233);"/></g><g class="cls-7_team-presentation-7-74"><path class="cls-20_team-presentation-7-74 targetColor" d="m208.25,444.43s-8.83-13.96-1.06-27c0,0,14.89,9.45,8.27,27.03l-7.21-.03Z" style="fill: rgb(93, 169, 233);"/></g><path class="cls-20_team-presentation-7-74 targetColor" d="m210.53,444.44s4.66-14.74,18.76-17.53c0,0,2.64,9.57-9.13,17.57l-9.63-.04Z" style="fill: rgb(93, 169, 233);"/><polygon class="cls-17_team-presentation-7-74" points="201.37 444.11 203.93 461.64 220.06 461.7 222.44 444.2 201.37 444.11"/></g><g id="conversation_team-presentation-7-74" class="cls-13_team-presentation-7-74"><path class="cls-14_team-presentation-7-74" d="m403.18,128.58h-10.08c-15.7,0-28.44,12.73-28.44,28.44h0c0,11.9,7.31,22.08,17.69,26.32l5.66,15.53,2.22-13.56c.94.09,1.9.14,2.87.14h10.08c15.7,0,28.44-12.73,28.44-28.44h0c0-15.7-12.73-28.44-28.44-28.44Z"/><path class="cls-14_team-presentation-7-74" d="m294.41,144.95h0c0-11.22-9.1-20.32-20.32-20.32h-26.32c-11.22,0-20.32,9.1-20.32,20.32h0c0,11.22,9.1,20.32,20.32,20.32h26.32c2.17,0,4.25-.35,6.21-.98l14.1,6.26-6.04-11.15c3.73-3.68,6.04-8.79,6.04-14.45Z"/><path class="cls-14_team-presentation-7-74" d="m180.96,112.16h-32.46c-13.84,0-25.06,11.22-25.06,25.06h0c0,8.2,3.95,15.45,10.04,20.02l-7.15,14.16,15.95-9.94c1.99.51,4.07.81,6.22.81h32.46c13.84,0,25.06-11.22,25.06-25.06h0c0-13.84-11.22-25.06-25.06-25.06Z"/></g></svg>