<svg id="visual" viewBox="0 0 1920 540" width="1920" height="540" xmlns="http://www.w3.org/2000/svg" xmlns:xlink="http://www.w3.org/1999/xlink" version="1.1"><path d="M0 369L45.7 385.5C91.3 402 182.7 435 274.2 436.3C365.7 437.7 457.3 407.3 548.8 407.7C640.3 408 731.7 439 823 448.7C914.3 458.3 1005.7 446.7 1097 436.3C1188.3 426 1279.7 417 1371.2 402.3C1462.7 387.7 1554.3 367.3 1645.8 366.3C1737.3 365.3 1828.7 383.7 1874.3 392.8L1920 402L1920 541L1874.3 541C1828.7 541 1737.3 541 1645.8 541C1554.3 541 1462.7 541 1371.2 541C1279.7 541 1188.3 541 1097 541C1005.7 541 914.3 541 823 541C731.7 541 640.3 541 548.8 541C457.3 541 365.7 541 274.2 541C182.7 541 91.3 541 45.7 541L0 541Z" fill="#003F91" stroke-linecap="round" stroke-linejoin="miter"></path></svg>