<svg id="visual" viewBox="0 0 1920 150" width="1920" height="150" xmlns="http://www.w3.org/2000/svg" xmlns:xlink="http://www.w3.org/1999/xlink" version="1.1"><path d="M0 99L45.7 98.7C91.3 98.3 182.7 97.7 274.2 103.3C365.7 109 457.3 121 548.8 122.2C640.3 123.3 731.7 113.7 823 110.7C914.3 107.7 1005.7 111.3 1097 114.8C1188.3 118.3 1279.7 121.7 1371.2 122C1462.7 122.3 1554.3 119.7 1645.8 114.7C1737.3 109.7 1828.7 102.3 1874.3 98.7L1920 95L1920 151L1874.3 151C1828.7 151 1737.3 151 1645.8 151C1554.3 151 1462.7 151 1371.2 151C1279.7 151 1188.3 151 1097 151C1005.7 151 914.3 151 823 151C731.7 151 640.3 151 548.8 151C457.3 151 365.7 151 274.2 151C182.7 151 91.3 151 45.7 151L0 151Z" fill="#003F91" stroke-linecap="round" stroke-linejoin="miter"></path></svg>