<svg id="visual" viewBox="0 0 1920 150" width="1920" height="150" xmlns="http://www.w3.org/2000/svg" xmlns:xlink="http://www.w3.org/1999/xlink" version="1.1"><path d="M0 70L45.7 61.8C91.3 53.7 182.7 37.3 274.2 31C365.7 24.7 457.3 28.3 548.8 37.3C640.3 46.3 731.7 60.7 823 64C914.3 67.3 1005.7 59.7 1097 52.2C1188.3 44.7 1279.7 37.3 1371.2 40.7C1462.7 44 1554.3 58 1645.8 63.8C1737.3 69.7 1828.7 67.3 1874.3 66.2L1920 65L1920 0L1874.3 0C1828.7 0 1737.3 0 1645.8 0C1554.3 0 1462.7 0 1371.2 0C1279.7 0 1188.3 0 1097 0C1005.7 0 914.3 0 823 0C731.7 0 640.3 0 548.8 0C457.3 0 365.7 0 274.2 0C182.7 0 91.3 0 45.7 0L0 0Z" fill="#003F91" stroke-linecap="round" stroke-linejoin="miter"></path></svg>